<svg preserveAspectRatio="none" width="100%" height="100%" overflow="visible" style="display: block;" viewBox="0 0 24 24" fill="none" xmlns="http://www.w3.org/2000/svg">
<g id="&#229;&#155;&#190;&#230;&#160;&#135;/&#230;&#138;&#149;&#231;&#165;&#168;-2">
<path id="Union" d="M12.5244 3.3125C14.264 3.3125 15.694 4.68056 15.7773 6.40332L15.7812 6.57129L15.7764 8H18.4941C20.2897 8.00008 21.7543 9.45754 21.75 11.2578L21.7207 21H23C23.4142 21 23.75 21.3358 23.75 21.75C23.75 22.1642 23.4142 22.5 23 22.5H1C0.585786 22.5 0.25 22.1642 0.25 21.75C0.25 21.3358 0.585786 21 1 21H2.27832L2.25 14.2607V14.2598C2.24458 12.458 3.71211 11 5.50781 11H8.26758L8.28125 6.55371L8.28613 6.38672C8.3771 4.67538 9.78659 3.31261 11.5244 3.3125H12.5244ZM5.50781 12.5C4.53631 12.5 3.7473 13.2896 3.75 14.2549L3.77832 21H8.23633L8.2627 12.5H5.50781ZM15.7363 21H20.2207L20.25 11.2539L20.2412 11.0752C20.1529 10.1929 19.4038 9.50008 18.4941 9.5H15.7725L15.7363 21ZM11.5244 4.8125C10.5625 4.81261 9.78394 5.59052 9.78125 6.55762V6.55859L9.73633 20.9688H14.2363L14.2812 6.56641C14.2834 5.60103 13.4951 4.8125 12.5244 4.8125H11.5244Z" fill="var(--fill-0, #323232)"/>
</g>
</svg>
