<svg preserveAspectRatio="none" width="100%" height="100%" overflow="visible" style="display: block;" viewBox="0 0 22 22" fill="none" xmlns="http://www.w3.org/2000/svg">
<g id="&#231;&#187;&#132;&#229;&#144;&#136; 4">
<path id="path" fill-rule="evenodd" clip-rule="evenodd" d="M3.2076 3.20848C1.0736 5.34336 0 7.95256 0 11C0 14.0474 1.07272 16.6566 3.2076 18.7906C5.34336 20.9273 7.95256 22 11 22C11.5579 22 12.0402 21.817 12.4133 21.4447C12.7864 21.0716 12.9677 20.5894 12.9677 20.0314C12.9677 19.5351 12.7758 19.0942 12.4133 18.7308C12.1642 18.4818 12.0085 18.1306 12.0085 17.6044C12.0063 17.3867 12.0477 17.1775 12.1324 16.9769C12.2172 16.7764 12.3384 16.601 12.496 16.4507C12.6472 16.2914 12.824 16.1689 13.0263 16.0835C13.2287 15.9981 13.4397 15.9568 13.6594 15.9597H15.7978C17.4926 15.9597 18.9605 15.356 20.1731 14.1636C21.3866 12.9694 22 11.5095 22 9.81464C22 7.09368 20.907 4.76608 18.7563 2.8644C16.6003 0.9548 14.0043 0 11 0C7.95256 0 5.34336 1.07272 3.2076 3.20848V3.20848Z" fill="url(#paint0_linear_0_4)"/>
<path id="path_2" fill-rule="evenodd" clip-rule="evenodd" d="M2.58984 9.19424C2.58984 8.66624 2.7676 8.23504 3.12576 7.89624C3.29532 7.73039 3.49021 7.60339 3.71041 7.51525C3.93062 7.42711 4.1593 7.38456 4.39648 7.3876C4.88488 7.3876 5.30728 7.55656 5.66544 7.89624C6.02272 8.23416 6.20224 8.66712 6.20224 9.19424C6.20224 9.72224 6.02271 10.1534 5.66544 10.4922C5.49608 10.6579 5.30147 10.7848 5.08159 10.8729C4.86171 10.961 4.63334 11.0037 4.39648 11.0009C4.15526 11.0026 3.92232 10.9595 3.69768 10.8715C3.47305 10.7836 3.2736 10.6572 3.0976 10.4922C2.7588 10.1543 2.58984 9.72136 2.58984 9.19424V9.19424Z" fill="url(#paint1_linear_0_4)"/>
<path id="path_3" fill-rule="evenodd" clip-rule="evenodd" d="M6.33218 5.09429C6.24428 4.86999 6.20102 4.63739 6.20239 4.39649C6.20239 3.90633 6.38103 3.48393 6.73919 3.12577C6.9048 2.95267 7.09795 2.81955 7.31865 2.72641C7.53936 2.63326 7.76948 2.58774 8.00903 2.58985C8.24852 2.58782 8.47855 2.63346 8.69913 2.72677C8.91971 2.82008 9.11266 2.95337 9.27799 3.12665C9.63615 3.48393 9.81479 3.90633 9.81479 4.39649C9.81479 4.88489 9.63615 5.30817 9.27799 5.66545C9.11257 5.8386 8.91958 5.97182 8.69904 6.06512C8.4785 6.15841 8.24849 6.20413 8.00903 6.20225C7.76793 6.20374 7.53509 6.16062 7.31051 6.07289C7.08593 5.98516 6.88728 5.85902 6.71103 5.69449C6.54636 5.51866 6.42007 5.31859 6.33218 5.09429V5.09429Z" fill="url(#paint2_linear_0_4)"/>
<path id="path_4" fill-rule="evenodd" clip-rule="evenodd" d="M12.3143 5.09429C12.2264 4.86999 12.1831 4.63739 12.1845 4.39649C12.1845 3.90633 12.364 3.48393 12.7213 3.12577C12.8869 2.95267 13.0801 2.81955 13.3008 2.7264C13.5215 2.63326 13.7516 2.58774 13.9911 2.58985C14.4813 2.58985 14.9037 2.76849 15.2619 3.12665C15.6191 3.48393 15.7978 3.90633 15.7978 4.39649C15.7998 4.63598 15.7542 4.86601 15.6609 5.08659C15.5676 5.30717 15.4343 5.50012 15.261 5.66545C15.0955 5.83871 14.9023 5.97199 14.6816 6.06529C14.4609 6.15859 14.2308 6.20424 13.9911 6.20225C13.7503 6.20356 13.5178 6.16035 13.2935 6.07262C13.0693 5.98489 12.8691 5.85885 12.6931 5.69449C12.5285 5.51865 12.4022 5.31859 12.3143 5.09429V5.09429Z" fill="url(#paint3_linear_0_4)"/>
<path id="path_5" fill-rule="evenodd" clip-rule="evenodd" d="M15.7976 9.19422C15.7976 8.66621 15.9771 8.23502 16.3344 7.89622C16.5037 7.73059 16.6984 7.6037 16.9182 7.51557C17.1381 7.42744 17.3665 7.38477 17.6034 7.38758C18.0935 7.38758 18.5168 7.55654 18.8741 7.89622C19.2322 8.23414 19.4109 8.6671 19.4109 9.19422C19.4109 9.72222 19.2322 10.1534 18.8741 10.4922C18.7045 10.6581 18.5096 10.7851 18.2894 10.8732C18.0692 10.9613 17.8405 11.0039 17.6034 11.0009C17.3624 11.0023 17.1298 10.9591 16.9055 10.8712C16.6812 10.7833 16.482 10.657 16.3062 10.4922C15.9674 10.1543 15.7976 9.72134 15.7976 9.19422V9.19422Z" fill="url(#paint4_linear_0_4)"/>
</g>
<defs>
<linearGradient id="paint0_linear_0_4" x1="0" y1="0" x2="0" y2="22" gradientUnits="userSpaceOnUse">
<stop stop-color="#FF94CA"/>
<stop offset="1" stop-color="#FF4D88"/>
</linearGradient>
<linearGradient id="paint1_linear_0_4" x1="2.58984" y1="7.38745" x2="2.58984" y2="11.001" gradientUnits="userSpaceOnUse">
<stop stop-color="white"/>
<stop offset="1" stop-color="#FFCADB"/>
</linearGradient>
<linearGradient id="paint2_linear_0_4" x1="6.20236" y1="2.58978" x2="6.20236" y2="6.2023" gradientUnits="userSpaceOnUse">
<stop stop-color="white"/>
<stop offset="1" stop-color="#FFCADB"/>
</linearGradient>
<linearGradient id="paint3_linear_0_4" x1="12.1845" y1="2.58978" x2="12.1845" y2="6.20231" gradientUnits="userSpaceOnUse">
<stop stop-color="white"/>
<stop offset="1" stop-color="#FFCADB"/>
</linearGradient>
<linearGradient id="paint4_linear_0_4" x1="15.7976" y1="7.38745" x2="15.7976" y2="11.001" gradientUnits="userSpaceOnUse">
<stop stop-color="white"/>
<stop offset="1" stop-color="#FFCADB"/>
</linearGradient>
</defs>
</svg>
