<svg preserveAspectRatio="none" width="100%" height="100%" overflow="visible" style="display: block;" viewBox="0 0 12 7.24811" fill="none" xmlns="http://www.w3.org/2000/svg">
<path id="&#232;&#183;&#175;&#229;&#190;&#132;" fill-rule="evenodd" clip-rule="evenodd" d="M11.9382 2.9116C11.9556 2.84391 11.9717 2.76395 11.9864 2.6775C12.0875 2.08277 11.6125 1.42767 11.0345 1.61541C10.9844 1.63166 10.9431 1.65282 10.914 1.68C10.2637 2.28855 9.60517 2.74851 8.53368 2.74851C7.46217 2.74851 6.80775 2.31827 6.04803 1.68C5.14287 0.919539 4.4642 0 2.68476 0C0.905303 0 -0.117865 1.45364 0.0108587 2.55795C0.401879 5.21893 3.08681 7.24811 6.04803 7.24811C8.87637 7.24811 11.301 5.39226 11.9382 2.9116V2.9116Z" fill="url(#paint0_linear_0_4)"/>
<defs>
<linearGradient id="paint0_linear_0_4" x1="-1.29236e-06" y1="0" x2="-1.29236e-06" y2="7.24811" gradientUnits="userSpaceOnUse">
<stop stop-color="white"/>
<stop offset="1" stop-color="#FFCADB"/>
</linearGradient>
</defs>
</svg>
