<svg preserveAspectRatio="none" width="100%" height="100%" overflow="visible" style="display: block;" viewBox="0 0 22 20" fill="none" xmlns="http://www.w3.org/2000/svg">
<g id="record_btn_picture">
<path id="&#229;&#189;&#162;&#231;&#138;&#182;&#231;&#187;&#147;&#229;&#144;&#136;" d="M14.3516 0C15.8645 0 17.1404 1.12665 17.3281 2.62793L17.376 3.01465C19.9618 3.20691 22 5.36507 22 8V15C22 17.7614 19.7614 20 17 20H5C2.23856 20 3.0925e-06 17.7614 0 15V8C3.19624e-06 5.3654 2.03771 3.20738 4.62305 3.01465L4.67188 2.62793C4.85955 1.12665 6.13548 0 7.64844 0H14.3516Z" fill="var(--fill-0, #E8E8E8)"/>
<path id="&#229;&#189;&#162;&#231;&#138;&#182;&#231;&#187;&#147;&#229;&#144;&#136;_2" d="M11 10C11.5523 10 12 10.4477 12 11C12 11.5523 11.5523 12 11 12C10.4477 12 10 11.5523 10 11C10 10.4477 10.4477 10 11 10Z" stroke="var(--stroke-0, white)" stroke-width="8"/>
</g>
</svg>
