<svg preserveAspectRatio="none" width="100%" height="100%" overflow="visible" style="display: block;" viewBox="0 0 20.9997 23" fill="none" xmlns="http://www.w3.org/2000/svg">
<path id="&#229;&#189;&#162;&#231;&#138;&#182;&#231;&#187;&#147;&#229;&#144;&#136;" d="M13.428 0C14.7342 0.000129863 15.7931 1.05901 15.7932 2.36523C15.7932 3.39559 15.1335 4.26931 14.2141 4.59375V5.69043C17.182 9.1679 19.4968 13.2168 20.8352 17.7334C21.1738 18.8581 20.9194 19.9938 20.6985 20.4355C20.3592 21.0459 20.0164 21.6052 18.7971 22.0586C17.2483 22.5716 13.1607 23 10.4514 23C7.7423 23 3.79308 22.6433 2.18777 22.0352C1.14089 21.59 0.653968 21.0215 0.325467 20.4355C0.0856678 20.0078 -0.185357 18.8423 0.1741 17.7334C1.53016 13.2043 3.80823 9.08094 6.78543 5.58398V4.59375C5.86627 4.26923 5.20633 3.39548 5.20633 2.36523C5.20648 1.05893 6.26619 0 7.57254 0H13.428Z" fill="url(#paint0_linear_0_4)"/>
<defs>
<linearGradient id="paint0_linear_0_4" x1="0.000271527" y1="0" x2="0.000271527" y2="23" gradientUnits="userSpaceOnUse">
<stop stop-color="#FF94CA"/>
<stop offset="1" stop-color="#FF4D88"/>
</linearGradient>
</defs>
</svg>
