<svg preserveAspectRatio="none" width="100%" height="100%" overflow="visible" style="display: block;" viewBox="0 0 26 26" fill="none" xmlns="http://www.w3.org/2000/svg">
<g id="record_operate_sport_hover">
<path id="&#232;&#146;&#153;&#231;&#137;&#136;" fill-rule="evenodd" clip-rule="evenodd" d="M13 1.5C19.3513 1.5 24.5 6.64873 24.5 13C24.5 19.3513 19.3513 24.5 13 24.5C6.64873 24.5 1.5 19.3513 1.5 13C1.5 6.64873 6.64873 1.5 13 1.5V1.5Z" fill="url(#paint0_linear_0_4)"/>
<path id="Union" d="M11.1275 5.29116C11.5374 5.21486 11.9476 5.47998 12.044 5.88344C12.5458 7.9928 12.2516 10.18 11.17 12.0534C10.1005 13.9058 8.38055 15.2451 6.33184 15.8748C5.93521 15.9967 5.4984 15.7773 5.35627 15.3848C5.21428 14.9923 5.42074 14.5753 5.81732 14.4534C7.51863 13.9305 8.94452 12.8202 9.83294 11.2814C10.7313 9.72539 10.9751 7.91287 10.5585 6.16136C10.4624 5.75751 10.7172 5.36761 11.1275 5.29116ZM20.0607 10.5175C20.4573 10.3956 20.8942 10.615 21.0363 11.0075C21.1783 11.4 20.9718 11.817 20.5752 11.9389C18.8738 12.4618 17.4481 13.5721 16.5596 15.1109C15.6612 16.6671 15.4168 18.4801 15.8335 20.2318C15.9295 20.6355 15.6752 21.0247 15.2651 21.1011C14.8549 21.1776 14.4438 20.9122 14.3477 20.5084C13.846 18.399 14.1401 16.2118 15.2217 14.3385C16.2912 12.4859 18.0119 11.1472 20.0607 10.5175Z" fill="var(--fill-0, white)"/>
</g>
<defs>
<linearGradient id="paint0_linear_0_4" x1="-10" y1="1.5" x2="-10" y2="24.5" gradientUnits="userSpaceOnUse">
<stop stop-color="#C9E673"/>
<stop offset="1" stop-color="#91CC3D"/>
</linearGradient>
</defs>
</svg>
