<svg preserveAspectRatio="none" width="100%" height="100%" overflow="visible" style="display: block;" viewBox="0 0 25 26" fill="none" xmlns="http://www.w3.org/2000/svg">
<g id="record_operate_breakfast_hover">
<g id="Group 113">
<path id="&#229;&#189;&#162;&#231;&#138;&#182;&#231;&#187;&#147;&#229;&#144;&#136;" d="M19 2C21.7614 2 24 4.23858 24 7C24 8.13263 23.6221 9.17633 22.9873 10.0146C22.9981 10.5882 23 11.2429 23 12V16C23 18.7999 22.9999 20.2 22.4551 21.2695C21.9757 22.2103 21.2103 22.9757 20.2695 23.4551C19.2 23.9999 17.7999 24 15 24H11C8.20005 24 6.79998 23.9999 5.73047 23.4551C4.78967 22.9757 4.0243 22.2103 3.54492 21.2695C3.00014 20.2 3 18.7999 3 16V12C3 11.2429 3.00095 10.5882 3.01172 10.0146C2.37712 9.17641 2 8.13242 2 7C2 4.23858 4.23856 2 7 2H19Z" fill="url(#paint0_linear_0_4)"/>
<path id="&#229;&#189;&#162;&#231;&#138;&#182;&#231;&#187;&#147;&#229;&#144;&#136;_2" d="M14.2195 13.3488C14.5123 13.0569 14.9861 13.0571 15.2781 13.3498C15.5701 13.6427 15.569 14.1174 15.2761 14.4094L11.7615 17.9133C11.4687 18.2052 10.9949 18.205 10.7029 17.9123C10.4109 17.6194 10.411 17.1448 10.7039 16.8528L14.2195 13.3488ZM14.2195 8.77267C14.5123 8.48069 14.986 8.48087 15.2781 8.77365C15.5701 9.06654 15.569 9.5412 15.2761 9.83322L11.7615 13.3371C11.4687 13.629 10.9949 13.6287 10.7029 13.3362C10.4109 13.0433 10.4111 12.5686 10.7039 12.2766L14.2195 8.77267Z" fill="url(#paint1_linear_0_4)"/>
</g>
</g>
<defs>
<linearGradient id="paint0_linear_0_4" x1="-7.1698" y1="3.00001" x2="-7.1698" y2="21.8679" gradientUnits="userSpaceOnUse">
<stop stop-color="#FFD659"/>
<stop offset="0.999103" stop-color="#FFAF40"/>
</linearGradient>
<linearGradient id="paint1_linear_0_4" x1="18.0026" y1="18.1321" x2="18.0026" y2="8.55392" gradientUnits="userSpaceOnUse">
<stop stop-color="#FFEACC"/>
<stop offset="1" stop-color="white"/>
</linearGradient>
</defs>
</svg>
