<svg preserveAspectRatio="none" width="100%" height="100%" overflow="visible" style="display: block;" viewBox="0 0 22.0052 23.0763" fill="none" xmlns="http://www.w3.org/2000/svg">
<g id="record_operate_fruit">
<path id="Oval 17 Copy" fill-rule="evenodd" clip-rule="evenodd" d="M11.0026 23.0763C4.92603 23.0763 0 18.9645 0 13.3247C0 7.68503 2.29221 2.05787 11.0026 3.11314C19.0796 2.09197 22.0052 7.68503 22.0052 13.3247C22.0052 18.9645 17.0791 23.0763 11.0026 23.0763V23.0763Z" fill="var(--fill-0, #E8E8E8)"/>
<path id="&#232;&#183;&#175;&#229;&#190;&#132; 3" fill-rule="evenodd" clip-rule="evenodd" d="M5.97306 7.34157C6.18243 7.67804 6.07939 8.12053 5.74292 8.32991C4.28003 9.24018 3.66524 10.5745 3.86229 12.4535C3.90362 12.8476 3.61762 13.2006 3.22348 13.242C2.82934 13.2833 2.47633 12.9973 2.435 12.6032C2.18192 10.1899 3.04392 8.31908 4.98472 7.11142C5.3212 6.90205 5.76369 7.00509 5.97306 7.34157V7.34157Z" fill="var(--fill-0, white)"/>
<path id="&#232;&#183;&#175;&#229;&#190;&#132; 4" d="M10.5736 4.48613C10.5736 4.48613 10.4295 2.23283 11.9536 0.956769" stroke="var(--stroke-0, #E8E8E8)" stroke-width="1.91349" stroke-linecap="round" stroke-linejoin="round"/>
</g>
</svg>
