<svg preserveAspectRatio="none" width="100%" height="100%" overflow="visible" style="display: block;" viewBox="0 0 26 26" fill="none" xmlns="http://www.w3.org/2000/svg">
<g id="record_operate_shit_hover">
<path id="&#229;&#189;&#162;&#231;&#138;&#182;&#231;&#187;&#147;&#229;&#144;&#136;" d="M11.6855 2.7373C11.7086 2.15661 12.339 1.8004 12.8242 2.12012C13.4539 2.53548 14.2028 3.0667 14.6504 3.51367C15.3653 4.22772 15.8066 5.0904 15.9492 6.03711H16C18.2091 6.03711 19.9999 7.82803 20 10.0371C20 10.1257 19.9959 10.2136 19.9902 10.3008C21.7204 10.7413 22.9998 12.3105 23 14.1777C23 14.7575 22.8752 15.3083 22.6533 15.8057C24.0373 16.4349 25 17.8289 25 19.4482C24.9999 21.6573 23.2091 23.4482 21 23.4482H5C2.79093 23.4482 1.00013 21.6573 1 19.4482C1 17.8292 1.96217 16.4351 3.3457 15.8057C3.12389 15.3084 3 14.7574 3 14.1777C3.00017 12.3108 4.27908 10.7416 6.00879 10.3008C6.00312 10.2137 6 10.1257 6 10.0371C6.00007 7.82803 7.79091 6.03711 10 6.03711H10.2715C10.8617 5.44757 11.3092 4.73421 11.5625 3.94336C11.6287 3.73672 11.6657 3.23742 11.6855 2.7373Z" fill="url(#paint0_linear_0_4)"/>
<path id="&#232;&#183;&#175;&#229;&#190;&#132;" fill-rule="evenodd" clip-rule="evenodd" d="M16.3471 14.4704C16.8499 14.6367 17.1193 15.1691 16.9489 15.6596C16.3799 17.2971 14.8003 18.4205 13 18.4205C11.1997 18.4205 9.62009 17.2971 9.05114 15.6596C8.88071 15.1691 9.15012 14.6367 9.65288 14.4704C10.1377 14.3101 10.6624 14.5488 10.8521 15.0058L10.8718 15.0575C11.1782 15.9393 12.0298 16.545 13 16.545C13.9417 16.545 14.7716 15.9744 15.0998 15.1346L15.1282 15.0575C15.2986 14.567 15.8444 14.3042 16.3471 14.4704V14.4704Z" fill="url(#paint1_linear_0_4)"/>
</g>
<defs>
<linearGradient id="paint0_linear_0_4" x1="-6.85465" y1="7.02522" x2="-6.85465" y2="22.8777" gradientUnits="userSpaceOnUse">
<stop stop-color="#FFDF80"/>
<stop offset="1" stop-color="#FFB54D"/>
</linearGradient>
<linearGradient id="paint1_linear_0_4" x1="21" y1="18.4205" x2="21" y2="14.4205" gradientUnits="userSpaceOnUse">
<stop stop-color="#FFEACC"/>
<stop offset="1" stop-color="white"/>
</linearGradient>
</defs>
</svg>
