<svg preserveAspectRatio="none" width="100%" height="100%" overflow="visible" style="display: block;" viewBox="0 0 7 5.88739" fill="none" xmlns="http://www.w3.org/2000/svg">
<path id="&#232;&#183;&#175;&#229;&#190;&#132;" fill-rule="evenodd" clip-rule="evenodd" d="M6.74994 3.40983C6.39618 4.17791 5.78264 4.76703 5.19586 5.18569C4.89451 5.40069 4.45011 5.61346 4.09462 5.76756C3.7272 5.92682 3.31237 5.92671 2.94345 5.77095C2.56894 5.61282 2.09894 5.39529 1.81354 5.19242C1.22392 4.77331 0.605711 4.182 0.250062 3.40983C-0.299368 2.21694 0.0747466 0.805037 1.19388 0.226955C1.79846 -0.0853395 2.40384 -0.0853394 3.07693 0.289337C3.12593 0.316613 3.19243 0.355037 3.25819 0.393473C3.40776 0.480893 3.59283 0.481631 3.74293 0.395105C3.81756 0.352079 3.89462 0.308123 3.9503 0.277493C4.60096 -0.0804494 5.21101 -0.0804495 5.80612 0.226955C6.92525 0.805037 7.29937 2.21694 6.74994 3.40983V3.40983Z" fill="url(#paint0_linear_0_4)"/>
<defs>
<linearGradient id="paint0_linear_0_4" x1="6.10797e-07" y1="-1.44276e-06" x2="6.10797e-07" y2="6" gradientUnits="userSpaceOnUse">
<stop stop-color="white"/>
<stop offset="1" stop-color="#C9EDFF"/>
</linearGradient>
</defs>
</svg>
