<svg preserveAspectRatio="none" width="100%" height="100%" overflow="visible" style="display: block;" viewBox="0 0 24 19.6195" fill="none" xmlns="http://www.w3.org/2000/svg">
<path id="&#232;&#183;&#175;&#229;&#190;&#132;" fill-rule="evenodd" clip-rule="evenodd" d="M23.1614 11.3843C21.9465 13.9391 19.8394 15.8987 17.8241 17.2914C16.7993 17.9996 15.2927 18.7004 14.0779 19.2118C12.7903 19.7537 11.3456 19.7533 10.053 19.2235C8.7727 18.6988 7.17924 17.9823 6.20813 17.3137C4.18315 15.9196 2.06002 13.9528 0.838609 11.3843C-1.04832 7.4163 0.328201 2.71986 4.1717 0.796957C6.24804 -0.241823 8.56128 -0.229523 10.547 0.626937C10.7669 0.721797 11.068 0.888017 11.3391 1.04626C11.747 1.28442 12.2541 1.28542 12.6629 1.04854C12.9613 0.875537 13.301 0.689657 13.5465 0.587557C15.5111 -0.229663 17.7845 -0.225563 19.8283 0.796957C23.6718 2.71986 25.0483 7.4163 23.1614 11.3843V11.3843Z" fill="url(#paint0_linear_0_7)"/>
<defs>
<linearGradient id="paint0_linear_0_7" x1="8.33976e-07" y1="-2.65676e-06" x2="8.33976e-07" y2="20" gradientUnits="userSpaceOnUse">
<stop stop-color="#FF94CA"/>
<stop offset="1" stop-color="#FF4D88"/>
</linearGradient>
</defs>
</svg>
