<svg preserveAspectRatio="none" width="100%" height="100%" overflow="visible" style="display: block;" viewBox="0 0 25.8858 23.8333" fill="none" xmlns="http://www.w3.org/2000/svg">
<g id="&#229;&#133;&#180;&#229;&#165;&#139;">
<g id="&#230;&#173;&#163;&#229;&#144;&#145;">
<path id="&#230;&#164;&#173;&#229;&#156;&#134; 1" fill-rule="evenodd" clip-rule="evenodd" d="M13.9691 4.76837e-06C20.5505 4.76837e-06 25.8858 5.33529 25.8858 11.9167C25.8858 18.4981 20.5505 23.8333 13.9691 23.8333C7.38773 23.8333 2.05245 18.4981 2.05245 11.9167C2.05245 5.33529 7.38773 4.76837e-06 13.9691 4.76837e-06V4.76837e-06Z" fill="var(--fill-0, #E8E8E8)"/>
</g>
<path id="&#230;&#164;&#173;&#229;&#156;&#134; 87" fill-rule="evenodd" clip-rule="evenodd" d="M10.2809 6.54409C11.8999 6.54321 13.213 7.85491 13.2139 9.47386C13.2148 11.0928 11.9031 12.4059 10.2841 12.4068C8.6652 12.4077 7.35206 11.096 7.35117 9.47707C7.35028 7.85812 8.66199 6.54498 10.2809 6.54409V6.54409Z" fill="var(--fill-0, white)"/>
<path id="&#230;&#164;&#173;&#229;&#156;&#134; 98" fill-rule="evenodd" clip-rule="evenodd" d="M10.2896 8.01537C11.0995 8.01493 11.7564 8.67113 11.7569 9.48103C11.7573 10.2909 11.1011 10.9478 10.2912 10.9483C9.48131 10.9487 8.82439 10.2925 8.82395 9.48263C8.82351 8.67273 9.47971 8.01581 10.2896 8.01537V8.01537Z" fill="var(--fill-0, #999999)"/>
<path id="&#229;&#135;&#143;&#229;&#142;&#187;&#233;&#161;&#182;&#229;&#177;&#130;" d="M15.7279 5.95828C17.3732 5.95738 18.7074 7.29266 18.7084 8.9407C18.7087 9.48568 18.5605 9.99499 18.306 10.4348C17.1542 10.4814 16.1369 11.0522 15.4857 11.9153C13.9552 11.7911 12.7512 10.5089 12.7504 8.94363C12.7497 7.29574 14.0827 5.95918 15.7279 5.95828Z" fill="var(--fill-0, white)"/>
<path id="&#230;&#164;&#173;&#229;&#156;&#134; 112" fill-rule="evenodd" clip-rule="evenodd" d="M15.6638 7.03796C16.4737 7.03752 17.1306 7.69372 17.1311 8.50362C17.1315 9.31352 16.4753 9.97044 15.6654 9.97088C14.8555 9.97133 14.1986 9.31513 14.1982 8.50522C14.1977 7.69532 14.8539 7.0384 15.6638 7.03796V7.03796Z" fill="var(--fill-0, #999999)"/>
<path id="&#229;&#135;&#143;&#229;&#142;&#187;&#233;&#161;&#182;&#229;&#177;&#130;_2" d="M15.1816 13.6373C15.1816 14.1576 15.2803 14.6545 15.4589 15.11L15.1933 15.1432C14.9355 15.1824 14.6763 15.2418 14.416 15.3219C14.0686 15.4289 13.743 15.5655 13.4404 15.7301C13.1552 15.8853 12.9043 16.0578 12.6884 16.2477L11.6533 15.0465C11.9564 14.7799 12.3022 14.5413 12.6894 14.3307C13.0827 14.1168 13.5023 13.9407 13.9482 13.8034C14.3601 13.6765 14.772 13.5911 15.1836 13.5436C15.1828 13.5748 15.1816 13.606 15.1816 13.6373Z" fill="var(--fill-0, #999999)"/>
<path id="&#230;&#164;&#173;&#229;&#156;&#134; 114" fill-rule="evenodd" clip-rule="evenodd" d="M18.7087 10.2917C20.8028 10.2917 22.5004 11.9893 22.5004 14.0833C22.5004 16.1774 20.8028 17.875 18.7087 17.875C16.6146 17.875 14.917 16.1774 14.917 14.0833C14.917 11.9893 16.6146 10.2917 18.7087 10.2917V10.2917Z" fill="var(--fill-0, #E8E8E8)"/>
<path id="&#231;&#159;&#169;&#229;&#189;&#162; 562" fill-rule="evenodd" clip-rule="evenodd" d="M14.312 14.3866L13.7038 14.8369C13.3878 15.071 12.9772 15.1385 12.6039 15.015L2.49567 11.6705C1.34603 11.2911 0.974971 9.85372 1.80129 8.96891C2.31831 8.4153 3.14469 8.28224 3.80936 8.64557L14.312 14.3866V14.3866Z" fill="var(--fill-0, #B3B3B3)"/>
<g id="&#232;&#146;&#153;&#231;&#137;&#136;">
<mask id="mask0_0_4" style="mask-type:luminance" maskUnits="userSpaceOnUse" x="1" y="8" width="14" height="8">
<path id="&#231;&#159;&#169;&#229;&#189;&#162; 563" fill-rule="evenodd" clip-rule="evenodd" d="M14.6769 14.6088L14.0498 15.0661C13.7249 15.303 13.3047 15.3696 12.9235 15.2416L2.53325 11.7525C1.3578 11.3587 0.986026 9.8842 1.83832 8.98401C2.36932 8.42317 3.21216 8.29185 3.88862 8.66457L14.6769 14.6088V14.6088Z" fill="var(--fill-0, white)"/>
</mask>
<g mask="url(#mask0_0_4)">
<path id="&#231;&#159;&#162;&#233;&#135;&#143; 40" fill-rule="evenodd" clip-rule="evenodd" d="M6.32597 14.1107C6.32597 15.9106 6.81849 14.8606 7.06475 14.1107C7.229 12.7774 7.21253 9.86098 5.83346 8.86105C4.4544 7.86112 2.79626 7.61114 2.13957 7.61114C3.535 9.02767 6.32597 12.3109 6.32597 14.1107V14.1107Z" fill="var(--fill-0, #D8D8D8)"/>
<path id="&#231;&#159;&#162;&#233;&#135;&#143; 41" fill-rule="evenodd" clip-rule="evenodd" d="M11.3739 16.5828C11.3739 18.3827 11.8665 17.3328 12.1127 16.5828C12.277 15.2496 12.2605 12.3331 10.8814 11.3332C9.50237 10.3333 7.84423 10.0833 7.18754 10.0833C8.58297 11.4998 11.3739 14.783 11.3739 16.5828V16.5828Z" fill="var(--fill-0, #D8D8D8)"/>
</g>
</g>
</g>
</svg>
