<svg preserveAspectRatio="none" width="100%" height="100%" overflow="visible" style="display: block;" viewBox="0 0 25.9999 24.9167" fill="none" xmlns="http://www.w3.org/2000/svg">
<g id="&#230;&#131;&#138;&#229;&#150;&#156;">
<g id="&#230;&#173;&#163;&#229;&#144;&#145;">
<path id="&#230;&#164;&#173;&#229;&#156;&#134; 1" fill-rule="evenodd" clip-rule="evenodd" d="M13.0002 1.08333C19.5816 1.08333 24.9169 6.41862 24.9169 13C24.9169 19.5814 19.5816 24.9167 13.0002 24.9167C6.41886 24.9167 1.08358 19.5814 1.08358 13C1.08358 6.41862 6.41886 1.08333 13.0002 1.08333V1.08333Z" fill="var(--fill-0, #E8E8E8)"/>
</g>
<path id="&#230;&#164;&#173;&#229;&#156;&#134; 87" fill-rule="evenodd" clip-rule="evenodd" d="M8.1271 5.95628C9.92202 5.95628 11.3771 7.65387 11.3771 9.74795C11.3771 11.842 9.92202 13.5396 8.1271 13.5396C6.33217 13.5396 4.8771 11.842 4.8771 9.74795C4.8771 7.65387 6.33217 5.95628 8.1271 5.95628V5.95628Z" fill="var(--fill-0, #999999)"/>
<path id="&#230;&#164;&#173;&#229;&#156;&#134; 106" fill-rule="evenodd" clip-rule="evenodd" d="M17.8771 5.95628C19.672 5.95628 21.1271 7.65387 21.1271 9.74795C21.1271 11.842 19.672 13.5396 17.8771 13.5396C16.0822 13.5396 14.6271 11.842 14.6271 9.74795C14.6271 7.65387 16.0822 5.95628 17.8771 5.95628V5.95628Z" fill="var(--fill-0, #999999)"/>
<path id="&#230;&#164;&#173;&#229;&#156;&#134; 105" fill-rule="evenodd" clip-rule="evenodd" d="M13 20.0417C10.6324 20.0417 8.9953 18.5619 8.71082 15.7643C8.65884 15.2531 9.05624 14.8228 9.56859 14.7837C10.4714 14.715 11.9326 14.625 13.3939 14.625C14.7125 14.625 15.786 14.6983 16.4774 14.7631C16.9703 14.8093 17.3409 15.2279 17.2934 15.7208C17.0216 18.5466 15.3798 20.0417 13 20.0417V20.0417Z" fill="var(--fill-0, #B3B3B3)"/>
<g id="&#232;&#146;&#153;&#231;&#137;&#136;">
<mask id="mask0_0_4" style="mask-type:luminance" maskUnits="userSpaceOnUse" x="8" y="14" width="10" height="7">
<path id="&#230;&#164;&#173;&#229;&#156;&#134; 107" fill-rule="evenodd" clip-rule="evenodd" d="M13 20.0417C10.6324 20.0417 8.9953 18.5619 8.71082 15.7643C8.65884 15.2531 9.05624 14.8228 9.56859 14.7837C10.4714 14.715 11.9326 14.625 13.3939 14.625C14.7125 14.625 15.786 14.6983 16.4774 14.7631C16.9703 14.8093 17.3409 15.2279 17.2934 15.7208C17.0216 18.5466 15.3798 20.0417 13 20.0417V20.0417Z" fill="var(--fill-0, white)"/>
</mask>
<g mask="url(#mask0_0_4)">
<path id="&#231;&#159;&#169;&#229;&#189;&#162; 641" fill-rule="evenodd" clip-rule="evenodd" d="M15.1666 13.5417C15.765 13.5417 16.25 14.0267 16.25 14.625V15.7083C16.25 16.3066 15.765 16.7917 15.1666 16.7917H10.8333C10.235 16.7917 9.74998 16.3066 9.74998 15.7083V14.625C9.74998 14.0267 10.235 13.5417 10.8333 13.5417H15.1666V13.5417Z" fill="var(--fill-0, white)"/>
</g>
</g>
<path id="&#230;&#152;&#159;&#229;&#189;&#162; 1" fill-rule="evenodd" clip-rule="evenodd" d="M8.03351 7.89034C7.97527 8.77544 7.35779 9.52425 6.49998 9.75C7.35779 9.97575 7.97527 10.7246 8.03351 11.6097L8.12498 13L8.21646 11.6097C8.27469 10.7246 8.89218 9.97575 9.74998 9.75C8.89218 9.52425 8.27469 8.77544 8.21646 7.89034L8.12498 6.5L8.03351 7.89034V7.89034Z" fill="var(--fill-0, white)"/>
<path id="&#230;&#152;&#159;&#229;&#189;&#162; 3" fill-rule="evenodd" clip-rule="evenodd" d="M4.52501 2.65956C4.39706 3.63192 3.6319 4.39708 2.65954 4.52503L1.22434 4.71389C1.03594 4.73869 1.03594 5.01132 1.22434 5.03611L2.65954 5.22497C3.6319 5.35292 4.39706 6.11808 4.52501 7.09044L4.71387 8.52564C4.73866 8.71404 5.0113 8.71404 5.03609 8.52564L5.22495 7.09044C5.35289 6.11808 6.11806 5.35292 7.09042 5.22497L8.52561 5.03611C8.71401 5.01132 8.71401 4.73868 8.52561 4.71389L7.09042 4.52503C6.11806 4.39708 5.35289 3.63192 5.22495 2.65956L5.03609 1.22436C5.0113 1.03596 4.73866 1.03596 4.71387 1.22436L4.52501 2.65956V2.65956Z" fill="var(--fill-0, #D8D8D8)"/>
<path id="&#230;&#152;&#159;&#229;&#189;&#162; 4" fill-rule="evenodd" clip-rule="evenodd" d="M23.1572 10.9763C23.0506 11.9479 22.3068 12.7279 21.3414 12.8803L21.0238 12.9304C20.9446 12.943 20.9446 13.057 21.0238 13.0696L21.3414 13.1197C22.3068 13.2721 23.0506 14.0521 23.1572 15.0237L23.2217 15.6117C23.2308 15.6953 23.3525 15.6953 23.3616 15.6117L23.4261 15.0237C23.5327 14.0521 24.2765 13.2721 25.2419 13.1197L25.5595 13.0696C25.6387 13.057 25.6387 12.943 25.5595 12.9304L25.2419 12.8803C24.2765 12.7279 23.5327 11.9479 23.4261 10.9763L23.3616 10.3883C23.3525 10.3047 23.2308 10.3047 23.2216 10.3883L23.1572 10.9763V10.9763Z" fill="var(--fill-0, #D8D8D8)"/>
<path id="&#230;&#152;&#159;&#229;&#189;&#162; 2" fill-rule="evenodd" clip-rule="evenodd" d="M17.7835 7.89034C17.7253 8.77544 17.1078 9.52425 16.25 9.75C17.1078 9.97575 17.7253 10.7246 17.7835 11.6097L17.875 13L17.9665 11.6097C18.0247 10.7246 18.6422 9.97575 19.5 9.75C18.6422 9.52425 18.0247 8.77544 17.9665 7.89034L17.875 6.5L17.7835 7.89034V7.89034Z" fill="var(--fill-0, white)"/>
</g>
</svg>
