<svg preserveAspectRatio="none" width="100%" height="100%" overflow="visible" style="display: block;" viewBox="0 0 23.8334 23.8333" fill="none" xmlns="http://www.w3.org/2000/svg">
<g id="&#230;&#140;&#186;&#229;&#188;&#128;&#229;&#191;&#131;">
<g id="&#230;&#173;&#163;&#229;&#144;&#145;">
<path id="&#230;&#164;&#173;&#229;&#156;&#134; 1" fill-rule="evenodd" clip-rule="evenodd" d="M11.9167 4.76837e-06C18.4981 4.76837e-06 23.8333 5.33529 23.8333 11.9167C23.8333 18.4981 18.4981 23.8333 11.9167 23.8333C5.33528 23.8333 0 18.4981 0 11.9167C0 5.33529 5.33528 4.76837e-06 11.9167 4.76837e-06V4.76837e-06Z" fill="var(--fill-0, #E8E8E8)"/>
</g>
<g id="&#231;&#187;&#132;&#229;&#144;&#136; 1619">
<path id="&#230;&#164;&#173;&#229;&#156;&#134; 101" fill-rule="evenodd" clip-rule="evenodd" d="M16.0952 5.95834C17.3773 5.95834 18.4166 6.99768 18.4166 8.27977C18.4166 9.56185 17.3773 10.6012 16.0952 10.6012C14.8131 10.6012 13.7738 9.56185 13.7738 8.27977C13.7738 6.99768 14.8131 5.95834 16.0952 5.95834V5.95834Z" fill="var(--fill-0, #222222)"/>
<path id="&#230;&#164;&#173;&#229;&#156;&#134; 104" fill-rule="evenodd" clip-rule="evenodd" d="M14.9345 6.53869C15.255 6.53869 15.5149 6.79852 15.5149 7.11904C15.5149 7.43957 15.255 7.6994 14.9345 7.6994C14.614 7.6994 14.3542 7.43957 14.3542 7.11904C14.3542 6.79852 14.614 6.53869 14.9345 6.53869V6.53869Z" fill="var(--fill-0, white)"/>
<path id="&#230;&#164;&#173;&#229;&#156;&#134; 102" fill-rule="evenodd" clip-rule="evenodd" d="M4.4881 5.95834C5.77018 5.95834 6.80952 6.99768 6.80952 8.27977C6.80952 9.56185 5.77018 10.6012 4.4881 10.6012C3.20601 10.6012 2.16667 9.56185 2.16667 8.27977C2.16667 6.99768 3.20601 5.95834 4.4881 5.95834V5.95834Z" fill="var(--fill-0, #222222)"/>
<path id="&#231;&#159;&#169;&#229;&#189;&#162; 110" fill-rule="evenodd" clip-rule="evenodd" d="M12.0327 10.6012C13.3148 10.6012 14.3542 11.6405 14.3542 12.9226C14.3542 15.1663 12.5353 16.9851 10.2917 16.9851C8.04801 16.9851 6.22917 15.1663 6.22917 12.9226C6.22917 11.6405 7.26851 10.6012 8.55059 10.6012H12.0327V10.6012Z" fill="var(--fill-0, #222222)"/>
</g>
<path id="&#231;&#159;&#169;&#229;&#189;&#162; 110_2" fill-rule="evenodd" clip-rule="evenodd" d="M12.0327 10.6012C13.3148 10.6012 14.3542 11.6405 14.3542 12.9226C14.3542 15.1663 12.5353 16.9851 10.2917 16.9851C8.04801 16.9851 6.22917 15.1663 6.22917 12.9226C6.22917 11.6405 7.26851 10.6012 8.55059 10.6012H12.0327V10.6012Z" fill="var(--fill-0, #222222)"/>
<g id="&#231;&#187;&#132;&#229;&#144;&#136; 1620">
<path id="&#230;&#164;&#173;&#229;&#156;&#134; 101_2" fill-rule="evenodd" clip-rule="evenodd" d="M16.0952 5.95834C17.3773 5.95834 18.4166 6.99768 18.4166 8.27977C18.4166 9.56185 17.3773 10.6012 16.0952 10.6012C14.8131 10.6012 13.7738 9.56185 13.7738 8.27977C13.7738 6.99768 14.8131 5.95834 16.0952 5.95834V5.95834Z" fill="var(--fill-0, #222222)"/>
<path id="&#230;&#164;&#173;&#229;&#156;&#134; 104_2" fill-rule="evenodd" clip-rule="evenodd" d="M14.9345 6.53869C15.255 6.53869 15.5149 6.79852 15.5149 7.11904C15.5149 7.43957 15.255 7.6994 14.9345 7.6994C14.614 7.6994 14.3542 7.43957 14.3542 7.11904C14.3542 6.79852 14.614 6.53869 14.9345 6.53869V6.53869Z" fill="var(--fill-0, white)"/>
<path id="&#230;&#164;&#173;&#229;&#156;&#134; 102_2" fill-rule="evenodd" clip-rule="evenodd" d="M4.4881 5.95834C5.77018 5.95834 6.80952 6.99768 6.80952 8.27977C6.80952 9.56185 5.77018 10.6012 4.4881 10.6012C3.20601 10.6012 2.16667 9.56185 2.16667 8.27977C2.16667 6.99768 3.20601 5.95834 4.4881 5.95834V5.95834Z" fill="var(--fill-0, #222222)"/>
<path id="&#231;&#159;&#169;&#229;&#189;&#162; 110_3" fill-rule="evenodd" clip-rule="evenodd" d="M12.0327 10.6012C13.3148 10.6012 14.3542 11.6405 14.3542 12.9226C14.3542 15.1663 12.5353 16.9851 10.2917 16.9851C8.04801 16.9851 6.22917 15.1663 6.22917 12.9226C6.22917 11.6405 7.26851 10.6012 8.55059 10.6012H12.0327V10.6012Z" fill="var(--fill-0, #222222)"/>
</g>
<g id="&#231;&#187;&#132;&#229;&#144;&#136; 1621">
<path id="&#230;&#164;&#173;&#229;&#156;&#134; 101_3" fill-rule="evenodd" clip-rule="evenodd" d="M16.0952 5.95834C17.3773 5.95834 18.4166 6.99768 18.4166 8.27977C18.4166 9.56185 17.3773 10.6012 16.0952 10.6012C14.8131 10.6012 13.7738 9.56185 13.7738 8.27977C13.7738 6.99768 14.8131 5.95834 16.0952 5.95834V5.95834Z" fill="var(--fill-0, #999999)"/>
<path id="&#230;&#164;&#173;&#229;&#156;&#134; 104_3" fill-rule="evenodd" clip-rule="evenodd" d="M14.9345 6.53869C15.255 6.53869 15.5149 6.79852 15.5149 7.11904C15.5149 7.43957 15.255 7.6994 14.9345 7.6994C14.614 7.6994 14.3542 7.43957 14.3542 7.11904C14.3542 6.79852 14.614 6.53869 14.9345 6.53869V6.53869Z" fill="var(--fill-0, white)"/>
<path id="&#230;&#164;&#173;&#229;&#156;&#134; 102_3" fill-rule="evenodd" clip-rule="evenodd" d="M4.4881 5.95834C5.77018 5.95834 6.80952 6.99768 6.80952 8.27977C6.80952 9.56185 5.77018 10.6012 4.4881 10.6012C3.20601 10.6012 2.16667 9.56185 2.16667 8.27977C2.16667 6.99768 3.20601 5.95834 4.4881 5.95834V5.95834Z" fill="var(--fill-0, #999999)"/>
<path id="&#231;&#159;&#169;&#229;&#189;&#162; 110_4" fill-rule="evenodd" clip-rule="evenodd" d="M12.0327 10.6012C13.3148 10.6012 14.3542 11.6405 14.3542 12.9226C14.3542 15.1663 12.5353 16.9851 10.2917 16.9851C8.04801 16.9851 6.22917 15.1663 6.22917 12.9226C6.22917 11.6405 7.26851 10.6012 8.55059 10.6012H12.0327V10.6012Z" fill="var(--fill-0, #B3B3B3)"/>
</g>
<g id="&#231;&#187;&#132;&#229;&#144;&#136; 1622">
<mask id="mask0_0_4" style="mask-type:luminance" maskUnits="userSpaceOnUse" x="6" y="10" width="9" height="7">
<path id="&#231;&#159;&#169;&#229;&#189;&#162; 110_5" fill-rule="evenodd" clip-rule="evenodd" d="M12.0327 10.6012C13.3148 10.6012 14.3542 11.6405 14.3542 12.9226C14.3542 15.1663 12.5353 16.9851 10.2917 16.9851C8.04801 16.9851 6.22917 15.1663 6.22917 12.9226C6.22917 11.6405 7.26851 10.6012 8.55059 10.6012H12.0327V10.6012Z" fill="var(--fill-0, white)"/>
</mask>
<g mask="url(#mask0_0_4)">
<path id="&#230;&#164;&#173;&#229;&#156;&#134; 103" fill-rule="evenodd" clip-rule="evenodd" d="M10.2917 14.625C11.7874 14.625 13 15.2313 13 15.9792C13 16.7271 11.7874 17.3333 10.2917 17.3333C8.7959 17.3333 7.58333 16.7271 7.58333 15.9792C7.58333 15.2313 8.7959 14.625 10.2917 14.625V14.625Z" fill="var(--fill-0, #D8D8D8)"/>
</g>
</g>
<path id="&#230;&#164;&#173;&#229;&#156;&#134; 104_4" fill-rule="evenodd" clip-rule="evenodd" d="M3.25 6.50001C3.54915 6.50001 3.79167 6.74252 3.79167 7.04167C3.79167 7.34083 3.54915 7.58334 3.25 7.58334C2.95085 7.58334 2.70833 7.34083 2.70833 7.04167C2.70833 6.74252 2.95085 6.50001 3.25 6.50001V6.50001Z" fill="var(--fill-0, white)"/>
</g>
</svg>
