<svg preserveAspectRatio="none" width="100%" height="100%" overflow="visible" style="display: block;" viewBox="0 0 26 26" fill="none" xmlns="http://www.w3.org/2000/svg">
<g id="record_operate_happy_hover">
<g id="&#232;&#182;&#133;&#229;&#188;&#128;&#229;&#191;&#131;">
<g id="&#230;&#173;&#163;&#229;&#144;&#145;">
<path id="&#230;&#164;&#173;&#229;&#156;&#134; 1" fill-rule="evenodd" clip-rule="evenodd" d="M12.9166 1C19.498 1 24.8333 6.33529 24.8333 12.9167C24.8333 19.4981 19.498 24.8333 12.9166 24.8333C6.33524 24.8333 0.999962 19.4981 0.999962 12.9167C0.999962 6.33529 6.33524 1 12.9166 1V1Z" fill="var(--fill-0, #E8E8E8)"/>
</g>
<path id="&#230;&#164;&#173;&#229;&#156;&#134; 92" d="M9.94875 7.71043C10.4357 7.21315 11.0678 6.94168 11.8897 7.15045C12.7116 7.35922 13.224 7.9213 13.4147 8.59063" stroke="var(--stroke-0, #999999)" stroke-width="1.35417"/>
<path id="&#230;&#164;&#173;&#229;&#156;&#134; 118" d="M16.2568 9.55511C16.8541 9.19788 17.5344 9.09592 18.2763 9.50668C19.0183 9.91744 19.371 10.5913 19.3853 11.2871" stroke="var(--stroke-0, #999999)" stroke-width="1.35417"/>
<path id="&#230;&#164;&#173;&#229;&#156;&#134; 115" fill-rule="evenodd" clip-rule="evenodd" d="M13.3944 10.0924C16.891 11.0383 19.9244 13.4741 19.2756 15.8724C18.6268 18.2708 14.8702 20.0031 11.3736 19.0572C7.87705 18.1114 5.80716 14.329 6.45596 11.9306C7.10476 9.53221 9.89785 9.1465 13.3944 10.0924V10.0924Z" fill="var(--fill-0, #B3B3B3)"/>
<g id="&#232;&#146;&#153;&#231;&#137;&#136;">
<mask id="mask0_0_4" style="mask-type:luminance" maskUnits="userSpaceOnUse" x="6" y="9" width="14" height="11">
<path id="&#230;&#164;&#173;&#229;&#156;&#134; 116" fill-rule="evenodd" clip-rule="evenodd" d="M13.5811 10.1269C17.0356 11.2163 19.9658 13.7752 19.2186 16.1448C18.4713 18.5144 14.6465 20.0901 11.1919 19.0007C7.73734 17.9113 5.82534 14.0467 6.5726 11.6771C7.31985 9.30757 10.1265 9.03749 13.5811 10.1269V10.1269Z" fill="var(--fill-0, white)"/>
</mask>
<g mask="url(#mask0_0_4)">
<path id="&#230;&#164;&#173;&#229;&#156;&#134; 117" fill-rule="evenodd" clip-rule="evenodd" d="M12.5964 15.8832C14.4224 17.0066 14.992 19.3976 13.8686 21.2236C12.7452 23.0497 10.3541 23.6192 8.52812 22.4958C6.70209 21.3724 6.13252 18.9814 7.25595 17.1553C8.37938 15.3293 10.7704 14.7597 12.5964 15.8832V15.8832Z" fill="var(--fill-0, #D8D8D8)"/>
</g>
</g>
<path id="&#231;&#159;&#162;&#233;&#135;&#143; 43" d="M8.58329 11.0027C9.53451 10.7499 11.9126 10.4973 14.0528 11.2556C16.193 12.0138 17.8577 13.7832 18.3333 14.5417" stroke="var(--stroke-0, white)" stroke-width="0.970486"/>
</g>
</g>
</svg>
