<svg preserveAspectRatio="none" width="100%" height="100%" overflow="visible" style="display: block;" viewBox="0 0 26.0217 24.0829" fill="none" xmlns="http://www.w3.org/2000/svg">
<g id="&#230;&#187;&#161;&#232;&#182;&#179;">
<g id="&#230;&#173;&#163;&#229;&#144;&#145;">
<path id="&#230;&#164;&#173;&#229;&#156;&#134; 1" fill-rule="evenodd" clip-rule="evenodd" d="M11.9167 0.249585C18.4981 0.249585 23.8333 5.58487 23.8333 12.1663C23.8333 18.7476 18.4981 24.0829 11.9167 24.0829C5.33528 24.0829 0 18.7476 0 12.1663C0 5.58487 5.33528 0.249585 11.9167 0.249585V0.249585Z" fill="var(--fill-0, #E8E8E8)"/>
</g>
<path id="&#230;&#164;&#173;&#229;&#156;&#134; 188" d="M12.9997 11.6246C12.9997 13.4195 11.3021 14.8746 9.20806 14.8746C7.11399 14.8746 5.4164 13.4195 5.4164 11.6246" stroke="var(--stroke-0, #999999)" stroke-width="1.625"/>
<path id="&#230;&#164;&#173;&#229;&#156;&#134; 105" d="M3.24973 7.29125C3.24973 6.39379 3.97727 5.66625 4.87473 5.66625C5.77219 5.66625 6.49973 6.39379 6.49973 7.29125" stroke="var(--stroke-0, #999999)" stroke-width="1.35417"/>
<path id="&#230;&#164;&#173;&#229;&#156;&#134; 106" d="M11.3747 7.29125C11.3747 6.39379 12.1023 5.66625 12.9997 5.66625C13.8972 5.66625 14.6247 6.39379 14.6247 7.29125" stroke="var(--stroke-0, #999999)" stroke-width="1.35417"/>
<path id="&#231;&#155;&#180;&#231;&#186;&#191; 4" d="M12.9997 8.91626L12.4581 9.99959" stroke="var(--stroke-0, #D8D8D8)" stroke-width="1.08333"/>
<path id="&#231;&#155;&#180;&#231;&#186;&#191; 5" d="M14.6247 8.91626L14.0831 9.99959" stroke="var(--stroke-0, #D8D8D8)" stroke-width="1.08333"/>
<path id="&#231;&#155;&#180;&#231;&#186;&#191; 4_2" d="M3.24973 9.45792L2.70806 10.5413" stroke="var(--stroke-0, #D8D8D8)" stroke-width="1.08333"/>
<path id="&#231;&#155;&#180;&#231;&#186;&#191; 5_2" d="M4.87474 9.45792L4.33307 10.5413" stroke="var(--stroke-0, #D8D8D8)" stroke-width="1.08333"/>
<g id="&#231;&#187;&#132;&#229;&#144;&#136; 1628">
<path id="&#230;&#164;&#173;&#229;&#156;&#134; 218" fill-rule="evenodd" clip-rule="evenodd" d="M18.2316 4.17805C19.241 4.08974 20.1289 4.81397 20.2148 5.79567C20.3007 6.77737 19.5521 7.64478 18.5427 7.7331C17.5332 7.82141 16.6453 7.09717 16.5594 6.11548C16.4736 5.13378 17.2222 4.26636 18.2316 4.17805V4.17805Z" fill="var(--fill-0, #D8D8D8)"/>
<path id="&#230;&#164;&#173;&#229;&#156;&#134; 218(-57&#194;&#176;)(-129&#194;&#176;)(-129&#194;&#176;)(-129&#194;&#176;)(-129&#194;&#176;)" fill-rule="evenodd" clip-rule="evenodd" d="M20.7318 2.80986C21.1277 3.74258 20.7133 4.81083 19.8062 5.19588C18.8991 5.58093 17.8427 5.13695 17.4468 4.20424C17.0509 3.27152 17.4653 2.20327 18.3724 1.81822C19.2795 1.43318 20.3359 1.87715 20.7318 2.80986V2.80986Z" fill="var(--fill-0, #D8D8D8)"/>
<path id="&#230;&#164;&#173;&#229;&#156;&#134; 218(-129&#194;&#176;)(159&#194;&#176;)(159&#194;&#176;)(159&#194;&#176;)(159&#194;&#176;)" fill-rule="evenodd" clip-rule="evenodd" d="M22.8054 4.76498C22.0407 5.42975 20.8966 5.36573 20.2501 4.622C19.6036 3.87828 19.6994 2.73647 20.4641 2.07171C21.2289 1.40695 22.3729 1.47096 23.0194 2.21469C23.6659 2.95842 23.5701 4.10022 22.8054 4.76498V4.76498Z" fill="var(--fill-0, #D8D8D8)"/>
<path id="&#230;&#164;&#173;&#229;&#156;&#134; 218(159&#194;&#176;)(87&#194;&#176;)(87&#194;&#176;)(87&#194;&#176;)(87&#194;&#176;)" fill-rule="evenodd" clip-rule="evenodd" d="M21.5869 7.34126C20.7184 6.81939 20.4257 5.71156 20.9333 4.86687C21.4408 4.02218 22.5564 3.76048 23.4249 4.28235C24.2934 4.80422 24.5861 5.91204 24.0785 6.75673C23.571 7.60142 22.4554 7.86313 21.5869 7.34126V7.34126Z" fill="var(--fill-0, #D8D8D8)"/>
<path id="&#230;&#164;&#173;&#229;&#156;&#134; 218(87&#194;&#176;)(15&#194;&#176;)(15&#194;&#176;)(15&#194;&#176;)(15&#194;&#176;)" fill-rule="evenodd" clip-rule="evenodd" d="M18.7603 6.97846C18.9882 5.99117 19.9514 5.37052 20.9116 5.59219C21.8718 5.81387 22.4654 6.79394 22.2375 7.78123C22.0095 8.76853 21.0464 9.38918 20.0862 9.1675C19.126 8.94583 18.5324 7.96576 18.7603 6.97846V6.97846Z" fill="var(--fill-0, #D8D8D8)"/>
<path id="&#230;&#164;&#173;&#229;&#156;&#134; 221" fill-rule="evenodd" clip-rule="evenodd" d="M20.1648 4.34555C20.6118 4.30645 21.0059 4.63711 21.045 5.08411C21.0841 5.53112 20.7535 5.92519 20.3065 5.96429C19.8595 6.0034 19.4654 5.67274 19.4263 5.22573C19.3872 4.77873 19.7178 4.38466 20.1648 4.34555V4.34555Z" fill="var(--fill-0, #D8D8D8)"/>
</g>
</g>
</svg>
