<svg preserveAspectRatio="none" width="100%" height="100%" overflow="visible" style="display: block;" viewBox="0 0 6.81317 10.2442" fill="none" xmlns="http://www.w3.org/2000/svg">
<path id="&#229;&#189;&#162;&#231;&#138;&#182;&#231;&#187;&#147;&#229;&#144;&#136;" d="M4.62988 0.00292969L4.90625 0.0107422L5.11523 0.0244141L5.28711 0.0429688L5.43457 0.0664062L5.56348 0.0966797L5.67676 0.131836L5.77637 0.171875L5.86523 0.21875L5.94434 0.270508L6.0127 0.329102L6.07227 0.393555L6.12305 0.464844L6.16504 0.542969L6.19922 0.628906L6.22461 0.72168L6.24219 0.824219L6.25 0.936523V1.05957L6.24023 1.19629L6.2207 1.35059L6.18848 1.52832L6.14062 1.74023L6.06836 2.01953L5.83887 2.8291L5.56543 3.77344L5.47754 4.05273L5.40332 4.26465L5.33398 4.44238L5.26562 4.59668L5.19629 4.7334L5.18164 4.75977H6.07227C6.71113 4.75977 7.05063 5.4501 6.62207 5.92383C6.14284 6.45339 5.47421 7.13903 4.5918 7.92578C3.61096 8.80029 2.63008 9.54828 1.86426 10.0977C1.30764 10.497 0.604397 10.0243 0.756836 9.35645C0.920072 8.64133 1.1343 7.7848 1.38965 6.94629C1.51324 6.54044 1.65232 6.13802 1.77734 5.79102H1.62012L1.34375 5.78223L1.13477 5.76953L0.962891 5.75098L0.81543 5.72656L0.6875 5.69727L0.574219 5.66211L0.473633 5.62109L0.384766 5.57422L0.306641 5.52246L0.237305 5.46387L0.177734 5.39941L0.126953 5.32812L0.0849609 5.25L0.0517578 5.16406L0.0253906 5.07129L0.00878906 4.96875L0 4.85645V4.7334L0.00976562 4.59668L0.0302734 4.44238L0.0625 4.26465L0.109375 4.05273L0.181641 3.77344L0.450195 2.83008L0.68457 2.01953L0.772461 1.74023L0.84668 1.52832L0.916992 1.35059L0.985352 1.19629L1.05371 1.05957L1.12402 0.936523L1.19727 0.824219L1.27246 0.72168L1.35156 0.628906L1.43457 0.542969L1.52148 0.464844L1.61328 0.393555L1.70996 0.329102L1.8125 0.270508L1.9209 0.21875L2.03613 0.171875L2.16016 0.131836L2.29297 0.0966797L2.43848 0.0664062L2.59961 0.0429688L2.78223 0.0244141L2.99902 0.0107422L3.28027 0.00292969L3.95508 0L4.62988 0.00292969Z" fill="url(#paint0_linear_0_4)"/>
<defs>
<linearGradient id="paint0_linear_0_4" x1="0" y1="0" x2="0" y2="10.2442" gradientUnits="userSpaceOnUse">
<stop stop-color="white"/>
<stop offset="1" stop-color="#FFCADB"/>
</linearGradient>
</defs>
</svg>
