<svg preserveAspectRatio="none" width="100%" height="100%" overflow="visible" style="display: block;" viewBox="0 0 22 22" fill="none" xmlns="http://www.w3.org/2000/svg">
<path id="&#229;&#189;&#162;&#231;&#138;&#182;&#231;&#187;&#147;&#229;&#144;&#136;" d="M14.75 0C15.4404 0 16 0.559644 16 1.25V2H17C19.7614 2 22 4.23858 22 7V17C22 19.7614 19.7614 22 17 22H5C2.23856 22 0 19.7614 0 17V7C0 4.23858 2.23856 2 5 2H6V1.25C6 0.559644 6.55964 0 7.25 0C7.94036 0 8.5 0.559644 8.5 1.25V2H13.5V1.25C13.5 0.559644 14.0596 0 14.75 0Z" fill="url(#paint0_linear_0_6)"/>
<defs>
<linearGradient id="paint0_linear_0_6" x1="0" y1="0" x2="0" y2="22" gradientUnits="userSpaceOnUse">
<stop stop-color="#75E8FF"/>
<stop offset="1" stop-color="#4DC3FF"/>
</linearGradient>
</defs>
</svg>
