<svg preserveAspectRatio="none" width="100%" height="100%" overflow="visible" style="display: block;" viewBox="0 0 21.3 21.3" fill="none" xmlns="http://www.w3.org/2000/svg">
<g id="record_icon_line_add">
<path id="&#230;&#164;&#173;&#229;&#156;&#134;&#229;&#189;&#162;" fill-rule="evenodd" clip-rule="evenodd" d="M10.65 0.65C16.1728 0.65 20.65 5.12716 20.65 10.65C20.65 16.1728 16.1728 20.65 10.65 20.65C5.12716 20.65 0.65 16.1728 0.65 10.65C0.65 5.12716 5.12716 0.65 10.65 0.65V0.65Z" stroke="var(--stroke-0, #FF4D88)" stroke-width="1.3"/>
<path id="&#229;&#189;&#162;&#231;&#138;&#182;&#231;&#187;&#147;&#229;&#144;&#136;" fill-rule="evenodd" clip-rule="evenodd" d="M10.6498 15.65C11.064 15.65 11.3998 15.3142 11.3998 14.9V11.4H14.8998C15.314 11.4 15.6498 11.0642 15.6498 10.65C15.6498 10.2358 15.314 9.9 14.8998 9.9H11.3998V6.4C11.3998 5.98579 11.064 5.65 10.6498 5.65C10.2355 5.65 9.89976 5.98579 9.89976 6.4V9.9H6.39976C5.98555 9.9 5.64976 10.2358 5.64976 10.65C5.64976 11.0642 5.98555 11.4 6.39976 11.4H9.89976V14.9C9.89976 15.3142 10.2355 15.65 10.6498 15.65Z" fill="var(--fill-0, #FF4D88)"/>
</g>
</svg>
