<svg preserveAspectRatio="none" width="100%" height="100%" overflow="visible" style="display: block;" viewBox="0 0 10 10" fill="none" xmlns="http://www.w3.org/2000/svg">
<path id="&#229;&#189;&#162;&#231;&#138;&#182;&#231;&#187;&#147;&#229;&#144;&#136;" d="M5 0C7.76142 0 10 2.23858 10 5C10 7.76142 7.76142 10 5 10C2.23858 10 0 7.76142 0 5C0 2.23858 2.23858 0 5 0ZM5.00098 1.66699C4.54085 1.66699 4.16717 2.03991 4.16699 2.5V4.16797H2.50098C2.04104 4.16814 1.66821 4.54105 1.66797 5.00098C1.66823 5.46088 2.04105 5.83479 2.50098 5.83496H4.16699V7.5C4.16726 7.96002 4.5409 8.33398 5.00098 8.33398C5.46089 8.3338 5.83372 7.9599 5.83398 7.5V5.83496H7.50098C7.96101 5.83491 8.3347 5.46096 8.33496 5.00098C8.33472 4.54098 7.96102 4.16802 7.50098 4.16797H5.83398V2.5C5.83381 2.04003 5.46095 1.66718 5.00098 1.66699Z" fill="url(#paint0_linear_0_4)"/>
<defs>
<linearGradient id="paint0_linear_0_4" x1="0" y1="0" x2="0" y2="10" gradientUnits="userSpaceOnUse">
<stop stop-color="white"/>
<stop offset="1" stop-color="#C9EDFF"/>
</linearGradient>
</defs>
</svg>
