<svg preserveAspectRatio="none" width="100%" height="100%" overflow="visible" style="display: block;" viewBox="0 0 24 24" fill="none" xmlns="http://www.w3.org/2000/svg">
<g id="&#230;&#160;&#135;&#231;&#173;&#190;&#230;&#160;&#143;&#229;&#155;&#190;&#230;&#160;&#135;/&#230;&#159;&#154;&#229;&#173;&#144;&#232;&#161;&#151;&#230;&#156;&#170;&#233;&#128;&#137;&#228;&#184;&#173;">
<path id="&#229;&#189;&#162;&#231;&#138;&#182;" d="M12 1C14.1689 1 15.9329 2.7498 15.9785 4.92578V4.96484L16.2314 4.99414L16.7188 5.07422L17.1523 5.17383L17.5449 5.29199L17.9023 5.42871L18.2305 5.58496L18.5312 5.76074L18.8086 5.95703L19.0645 6.17383L19.2988 6.41309L19.5146 6.67578L19.7119 6.96289L19.8916 7.27637L20.0537 7.62012L20.2002 7.99609L20.3311 8.41113L20.4453 8.87109L20.5459 9.38965L20.6338 9.98535L20.709 10.6992L20.7773 11.6357L20.8887 13.9189L20.9844 16.2148L21 17.1514L20.9873 17.8652L20.9512 18.4609L20.8926 18.9785L20.8125 19.4395L20.7119 19.8535L20.5889 20.2305L20.4453 20.5732L20.2793 20.8877L20.0918 21.1748L19.8809 21.4375L19.6455 21.6768L19.3857 21.8936L19.0986 22.0898L18.7832 22.2656L18.4375 22.4219L18.0557 22.5586L17.6338 22.6768L17.165 22.7754L16.6348 22.8564L16.0244 22.9199L15.292 22.9648L14.3301 22.9912L12.001 23L9.66992 22.9912L8.70801 22.9648L7.97559 22.9199L7.36523 22.8564L6.83496 22.7754L6.36621 22.6768L5.94434 22.5586L5.5625 22.4219L5.21582 22.2656L4.90137 22.0898L4.61426 21.8936L4.35449 21.6768L4.11914 21.4375L3.9082 21.1748L3.7207 20.8877L3.55469 20.5732L3.41113 20.2305L3.28809 19.8535L3.1875 19.4395L3.10742 18.9785L3.04883 18.4609L3.0127 17.8652L3 17.1514L3.01562 16.2148L3.11035 13.9199L3.22266 11.6357L3.29102 10.6992L3.36621 9.98535L3.4541 9.38965L3.55371 8.87109L3.66895 8.41113L3.7998 7.99609L3.94629 7.62012L4.1084 7.27637L4.28809 6.96289L4.48535 6.67578L4.70117 6.41309L4.93555 6.17383L5.19141 5.95703L5.46875 5.76074L5.76953 5.58496L6.09766 5.42871L6.45508 5.29199L6.84668 5.17383L7.28125 5.07422L7.76855 4.99414L8.02148 4.96484C8.04668 2.77078 9.81811 1 12 1ZM9.91797 6.2832L9.43359 6.29688V7.4873C9.43357 7.88055 9.11751 8.19907 8.72754 8.19922C8.35243 8.19922 8.04551 7.90461 8.02246 7.53223L8.02051 7.4873V6.39648L7.99805 6.39941L7.59375 6.46387L7.25 6.53906L6.90527 6.64258L6.64355 6.74316L6.43066 6.84473L6.22852 6.96289L6.05859 7.08203L5.89453 7.22168L5.74707 7.37207L5.61328 7.53418L5.48145 7.72656L5.36133 7.93652L5.23633 8.19824L5.14648 8.42676L5.03906 8.75977L4.94043 9.14453L4.85156 9.59766L4.77148 10.1357L4.7002 10.8037L4.63379 11.7061L4.52246 13.9795L4.42773 16.2383L4.41211 17.126L4.42285 17.7773L4.45312 18.2998L4.49902 18.7334L4.55957 19.0996L4.64551 19.4551L4.73535 19.7305L4.83105 19.958L4.93359 20.1533L5.0498 20.334L5.16992 20.4824L5.30664 20.6211L5.46484 20.7529L5.64062 20.874L5.8457 20.9893L6.09863 21.1025L6.32129 21.1855L6.65625 21.2822L7.04688 21.3672L7.50879 21.4395L8.06152 21.498L8.74707 21.54L9.6748 21.5664L11.9961 21.5752L14.291 21.5674L15.207 21.542L15.8809 21.5029L16.4229 21.4482L16.874 21.3818L17.2568 21.3037L17.583 21.2158L17.9043 21.1006L18.1572 20.9863L18.3584 20.874L18.5342 20.7529L18.6924 20.6211L18.8291 20.4824L18.9492 20.334L19.0654 20.1533L19.1689 19.958L19.2617 19.7354L19.3564 19.4473L19.4209 19.1943L19.4893 18.8174L19.541 18.374L19.5752 17.8398L19.5879 17.1748L19.5732 16.2744L19.4785 13.9893L19.3682 11.7402L19.3037 10.8496L19.2354 10.1934L19.1602 9.66309L19.0762 9.21973L18.9844 8.8418L18.8848 8.5166L18.7578 8.19043L18.6445 7.94824L18.5166 7.72461L18.3867 7.53711L18.251 7.37207L18.1025 7.2207L17.9453 7.08594L17.7705 6.96289L17.5723 6.84668L17.3545 6.74219L17.0859 6.63965L16.8398 6.56348L16.4893 6.48047L16.0742 6.40918L15.9795 6.39746V7.4873C15.9795 7.88064 15.6626 8.19922 15.2725 8.19922C14.8975 8.19908 14.5904 7.90452 14.5674 7.53223L14.5664 7.4873V6.29688L14.1182 6.2832L11.9971 6.27441L9.91797 6.2832ZM9.48047 10.958C10.2157 10.5615 10.9696 10.488 11.6895 10.7705C11.7037 10.7761 11.7344 10.7897 11.7715 10.8057C11.9165 10.8681 12.0812 10.8648 12.2246 10.7988C12.253 10.7857 12.2764 10.7752 12.2881 10.7705C12.994 10.488 13.7976 10.5686 14.5195 10.958C15.9507 11.73 16.482 13.5901 15.7881 15.1631C15.4251 15.986 14.8201 16.6761 14.0615 17.2412C13.8267 17.4161 13.0957 17.8057 13.0957 17.8057C12.7612 17.9649 12.4077 18.0455 12.0479 18.0498C11.6805 18.0542 11.2852 17.9631 10.9414 17.8057C10.5245 17.6148 10.2088 17.4424 9.94824 17.249C9.18508 16.6826 8.57659 15.9898 8.21191 15.1631C7.51802 13.59 8.04923 11.7299 9.48047 10.958ZM11.3467 12.1396C11.0175 11.9804 10.499 11.9643 10.0957 12.1904C9.39035 12.5863 9.1122 13.5987 9.49219 14.4951C9.74408 15.0893 10.1982 15.6258 10.7891 16.082C10.9608 16.2146 11.2217 16.3675 11.5674 16.5322C11.7166 16.6033 11.8922 16.6331 12.0508 16.6299C12.1992 16.6268 12.3387 16.5995 12.4746 16.5322C12.4746 16.5322 13.0567 16.2026 13.2197 16.0762C13.8066 15.6212 14.2571 15.0864 14.5078 14.4951C14.8878 13.5987 14.6096 12.5863 13.9043 12.1904C13.5173 11.9734 12.9534 11.9834 12.6182 12.1396C12.6098 12.1435 12.4102 12.2458 12.2402 12.333C12.0889 12.4106 11.9099 12.413 11.7568 12.3389L11.3467 12.1396ZM12 2.4248C10.6293 2.4248 9.51171 3.50813 9.43945 4.87207L9.875 4.85938L11.998 4.85059L14.125 4.85938L14.5586 4.87207C14.4863 3.50818 13.3706 2.42481 12 2.4248Z" fill="var(--fill-0, #555555)"/>
</g>
</svg>
