<svg preserveAspectRatio="none" width="100%" height="100%" overflow="visible" style="display: block;" viewBox="0 0 24 24" fill="none" xmlns="http://www.w3.org/2000/svg">
<g id="&#230;&#160;&#135;&#231;&#173;&#190;&#230;&#160;&#143;&#229;&#155;&#190;&#230;&#160;&#135;/&#233;&#166;&#150;&#233;&#161;&#181;&#230;&#156;&#170;&#233;&#128;&#137;&#228;&#184;&#173;">
<path id="&#229;&#189;&#162;&#231;&#138;&#182;" d="M12.4996 0.999939C18.5747 0.999939 23.4995 4.47719 23.4996 8.76654C23.4996 8.77757 23.4987 8.78872 23.4987 8.79974H23.4996V11.1328H23.4957C23.4246 17.1467 18.5304 21.9999 12.4996 21.9999C6.61452 21.9999 1.80908 17.3782 1.51428 11.5663L1.49963 10.9999V8.79974H1.50061C1.50055 8.78872 1.49963 8.77757 1.49963 8.76654C1.49973 4.47722 6.42462 0.999983 12.4996 0.999939ZM3.09436 12.7958C3.93505 17.2255 7.82528 20.5751 12.4996 20.5751C17.1736 20.5751 21.0627 17.2259 21.9039 12.7968C19.9741 15.0368 16.4845 16.5331 12.4996 16.5331C8.51414 16.5331 5.02398 15.0365 3.09436 12.7958ZM12.4996 2.42474C7.12634 2.42479 2.92444 5.39138 2.92444 8.76654C2.92449 12.1417 7.12637 15.1083 12.4996 15.1083C17.873 15.1083 22.0748 12.1417 22.0748 8.76654C22.0748 5.39135 17.873 2.42474 12.4996 2.42474ZM12.2848 9.81049C12.4146 9.65686 12.6511 9.65686 12.7809 9.81049L14.486 11.829C15.0355 12.4677 14.6066 13.2487 13.528 13.5742C12.4494 13.8995 11.1294 13.6463 10.5797 13.0078C10.2459 12.6198 10.2731 12.1784 10.5875 11.8193L12.2848 9.81049ZM10.5709 9.21185C10.8766 9.20101 11.0268 9.57987 10.7965 9.78119L9.06604 11.2939C8.40265 11.8831 7.04018 12.0517 6.02307 11.6708C5.00595 11.2899 4.71907 10.5032 5.38245 9.914C5.78532 9.55631 6.44607 9.35366 7.13049 9.3349L10.5709 9.21185ZM17.8864 9.3349C19.099 9.37304 20.0333 9.97228 19.9723 10.6728C19.9111 11.3734 18.8774 11.9101 17.6647 11.872C16.9284 11.8488 16.2947 11.619 15.9244 11.2851L14.2028 9.78119C13.9728 9.57988 14.1229 9.20119 14.4283 9.21185L17.8864 9.3349ZM7.33459 5.6601C8.07092 5.68326 8.70451 5.91318 9.07483 6.24701L10.7965 7.75189C11.0265 7.95325 10.8765 8.33207 10.5709 8.32123L7.11292 8.1972C5.90022 8.15902 4.96684 7.55985 5.02795 6.85931C5.08958 6.15897 6.12211 5.62199 7.33459 5.6601ZM15.9342 6.2392C16.5977 5.65021 17.9602 5.48133 18.9772 5.86224C19.9939 6.24327 20.28 7.02998 19.6168 7.61908C19.2139 7.9767 18.5531 8.17944 17.8688 8.19818L14.4283 8.32123C14.1226 8.33215 13.9726 7.95325 14.2028 7.75189L15.9342 6.2392ZM11.5377 3.95795C12.6163 3.63258 13.9363 3.88675 14.486 4.52533C14.8197 4.9132 14.7925 5.35373 14.4781 5.71283L12.7809 7.7226C12.651 7.87591 12.4146 7.87603 12.2848 7.7226L10.5797 5.70404C10.0301 5.06532 10.459 4.28341 11.5377 3.95795Z" fill="var(--fill-0, #555555)"/>
</g>
</svg>
