<svg preserveAspectRatio="none" width="100%" height="100%" overflow="visible" style="display: block;" viewBox="0 0 24 24" fill="none" xmlns="http://www.w3.org/2000/svg">
<g id="&#230;&#160;&#135;&#231;&#173;&#190;&#230;&#160;&#143;&#229;&#155;&#190;&#230;&#160;&#135;/&#232;&#174;&#176;&#229;&#189;&#149;&#233;&#128;&#137;&#228;&#184;&#173;">
<path id="&#229;&#189;&#162;&#231;&#138;&#182;" d="M15.9727 1C16.3597 1.0003 16.6737 1.31408 16.6738 1.70117V3.09473L17.2383 3.1582L17.7812 3.24707L18.2646 3.35645L18.6992 3.48633L19.0938 3.6377L19.4541 3.80957L19.7832 4.00293L20.085 4.21973L20.3604 4.45898L20.6113 4.72266L20.8389 5.01172L21.0449 5.32812L21.2295 5.67383L21.3936 6.05273L21.5371 6.4668L21.6602 6.92383L21.7646 7.43066L21.8496 8.00195L21.915 8.6582L21.9629 9.44531L21.9902 10.4775L22 12.9902L21.9902 15.5225L21.9629 16.5547L21.915 17.3418L21.8496 17.998L21.7646 18.5693L21.6602 19.0762L21.5371 19.5332L21.3936 19.9482L21.2295 20.3262L21.0449 20.6719L20.8389 20.9883L20.6113 21.2773L20.3604 21.541L20.085 21.7803L19.7832 21.9971L19.4541 22.1904L19.0938 22.3623L18.6992 22.5137L18.2646 22.6436L17.7812 22.7529L17.2383 22.8418L16.6133 22.9111L15.8643 22.9609L14.8809 22.9902L12.001 23L9.11914 22.9902L8.13574 22.9609L7.38672 22.9111L6.76172 22.8418L6.21875 22.7529L5.73535 22.6436L5.30078 22.5137L4.90625 22.3623L4.5459 22.1904L4.2168 21.9971L3.91504 21.7803L3.63965 21.541L3.38867 21.2773L3.16113 20.9883L2.95508 20.6719L2.77051 20.3262L2.60645 19.9482L2.46289 19.5332L2.33984 19.0762L2.23535 18.5693L2.15039 17.998L2.08496 17.3418L2.03711 16.5547L2.00977 15.5225L2 12.9941L2.00977 10.4775L2.03711 9.44531L2.08496 8.6582L2.15039 8.00195L2.23535 7.43066L2.33984 6.92383L2.46289 6.4668L2.60645 6.05273L2.77051 5.67383L2.95508 5.32812L3.16113 5.01172L3.38867 4.72266L3.63965 4.45898L3.91504 4.21973L4.2168 4.00293L4.5459 3.80957L4.90625 3.6377L5.30078 3.48633L5.73535 3.35645L6.21875 3.24707L6.76172 3.1582L7.36816 3.09082V1.70117C7.36832 1.314 7.68217 1.00017 8.06934 1C8.45647 1.00021 8.77133 1.31403 8.77148 1.70117V3.01953L9.11914 3.00977L11.998 3L14.8809 3.00977L15.2715 3.02051V1.70117C15.2716 1.3139 15.5853 1 15.9727 1ZM7.49512 9.11133C7.10867 9.1115 6.7959 9.42504 6.7959 9.81152V17.2998C6.7959 17.6863 7.10867 17.9998 7.49512 18C7.88172 18 8.19531 17.6864 8.19531 17.2998V9.81152C8.19531 9.42493 7.88172 9.11133 7.49512 9.11133ZM14.0166 9.11133C13.0454 9.11145 12.2444 9.52677 11.6357 10.3525C11.027 11.174 10.7178 12.2588 10.7178 13.5713C10.7178 14.9017 11.0181 15.9825 11.6045 16.7861C12.1953 17.5895 12.9829 17.9999 13.9541 18C14.912 18 15.7 17.5851 16.2998 16.7637C16.8996 15.9422 17.2041 14.8614 17.2041 13.5488C17.213 12.2632 16.9084 11.1965 16.3086 10.3662C15.7088 9.53581 14.9387 9.11133 14.0166 9.11133ZM14.0166 10.5498C14.4808 10.5498 14.8406 10.7474 15.1846 11.2236C15.5951 11.792 15.8115 12.5555 15.8047 13.5381C15.8047 14.5663 15.5856 15.3448 15.1807 15.8994C14.8421 16.363 14.4661 16.5605 13.9541 16.5605C13.427 16.5605 13.051 16.3658 12.7217 15.918C12.3338 15.3864 12.1182 14.6068 12.1182 13.5713C12.1182 12.5555 12.3396 11.7761 12.749 11.2236C13.0965 10.7523 13.486 10.5499 14.0166 10.5498Z" fill="var(--fill-0, #FF4D88)"/>
</g>
</svg>
