<svg preserveAspectRatio="none" width="100%" height="100%" overflow="visible" style="display: block;" viewBox="0 0 24 24" fill="none" xmlns="http://www.w3.org/2000/svg">
<g id="&#230;&#160;&#135;&#231;&#173;&#190;&#230;&#160;&#143;&#229;&#155;&#190;&#230;&#160;&#135;/&#229;&#165;&#185;&#229;&#165;&#185;&#229;&#156;&#136;&#230;&#156;&#170;&#233;&#128;&#137;&#228;&#184;&#173;">
<path id="&#229;&#189;&#162;&#231;&#138;&#182;" d="M11.4443 2C16.6604 2 20.8886 6.24149 20.8887 11.4736C20.8887 13.1759 20.4388 14.7718 19.6553 16.1523L21.2783 17.7812C22.2405 18.7464 22.2404 20.3112 21.2783 21.2764C20.3162 22.2415 18.7561 22.2415 17.7949 21.2773L16.1826 19.667C14.7895 20.4794 13.1718 20.9473 11.4443 20.9473C6.22837 20.9472 2 16.7057 2 11.4736C2.00003 6.24155 6.22838 2.00009 11.4443 2ZM18.8838 17.3057C18.4272 17.8909 17.9044 18.4207 17.3252 18.8838L18.7549 20.3125C19.1863 20.7453 19.8859 20.7453 20.3174 20.3125C20.7488 19.8798 20.7489 19.1781 20.3174 18.7451L18.8838 17.3057ZM11.4443 3.36328C6.97888 3.36328 3.35849 6.9944 3.3584 11.4736C3.3584 15.9529 6.97882 19.584 11.4443 19.584C15.9098 19.5839 19.5303 15.9529 19.5303 11.4736C19.5302 6.99443 15.9098 3.36332 11.4443 3.36328ZM11.2197 6.58594C14.0217 6.6046 15.7852 9.29583 14.6562 11.5117C13.8143 13.1642 11.4604 13.6442 10.292 12.2207C10.0355 11.9082 10.08 11.4467 10.3916 11.1895C10.6772 10.9537 11.0875 10.9714 11.3516 11.2168L11.4199 11.2891C11.8707 11.8383 12.9614 11.6158 13.3545 10.8447C13.9753 9.62636 12.9516 8.06332 11.21 8.05176C9.37088 8.03958 7.99642 9.73043 8.27441 11.6357C8.50021 13.1828 9.35431 14.1285 10.8506 14.6807C12.3834 15.2221 14.4818 14.704 15.5605 13.5908C15.8419 13.3007 16.3044 13.2941 16.5938 13.5762C16.8829 13.8582 16.8893 14.3221 16.6084 14.6123C15.1367 16.1309 12.4413 16.7964 10.3555 16.0596C8.37282 15.3279 7.13736 13.9596 6.8291 11.8486C6.42443 9.076 8.46237 6.56767 11.2197 6.58594Z" fill="var(--fill-0, #555555)"/>
</g>
</svg>
