<svg preserveAspectRatio="none" width="100%" height="100%" overflow="visible" style="display: block;" viewBox="0 0 24 24" fill="none" xmlns="http://www.w3.org/2000/svg">
<g id="&#230;&#160;&#135;&#231;&#173;&#190;&#230;&#160;&#143;&#229;&#155;&#190;&#230;&#160;&#135;/&#230;&#136;&#145;&#230;&#156;&#170;&#233;&#128;&#137;&#228;&#184;&#173;">
<path id="&#229;&#189;&#162;&#231;&#138;&#182;" fill-rule="evenodd" clip-rule="evenodd" d="M21.5457 11.0454H21.5543L21.6498 13.328C21.6648 14.3638 21.9202 15.8271 22.416 17.7181C22.727 18.6353 22.1444 19.6261 21.2083 19.9805C19.4732 20.6375 17.6124 21.0876 15.6259 21.3309C14.6061 22.0666 13.3538 22.5 12.0002 22.5C10.6483 22.5 9.39729 22.0676 8.37806 21.3335C6.43356 21.0968 4.60948 20.6621 2.9059 20.0294L2.79426 19.9875C1.86371 19.6361 1.2813 18.6564 1.57822 17.7451L1.62727 17.564C2.10992 15.7658 2.35123 14.3539 2.35123 13.328L2.46612 11.0454H2.4548C2.4548 5.77365 6.72843 1.5 12.0002 1.5C17.272 1.5 21.5457 5.77365 21.5457 11.0454V11.0454ZM11.9747 12.5838C10.7858 13.8131 9.11918 14.5774 7.27402 14.5774L7.22629 14.5769V16.2956C7.22629 18.9315 9.36311 21.0683 11.999 21.0683C14.6349 21.0683 16.7717 18.9315 16.7717 16.2956V14.5774C14.908 14.5774 13.2136 13.7976 12.0103 12.5465L11.9747 12.5838V12.5838ZM6.5115 13.1454L6.52836 13.1456L6.528 13.1454L7.22722 13.1454L7.22727 13.1452L7.27513 13.1454C9.7578 13.1454 11.8267 11.3738 12.2866 9.02587L12.2865 9.1363L12.2881 9.13627C12.287 9.1205 12.2865 9.10461 12.2865 9.08859C12.2865 8.69319 12.607 8.37267 13.0024 8.37267C13.3978 8.37267 13.7183 8.69319 13.7183 9.08859C13.7183 9.10461 13.7178 9.1205 13.7167 9.13627H13.722C13.5846 9.94914 13.2972 10.711 12.8893 11.3924C13.8374 12.4674 15.232 13.1454 16.7729 13.1454L16.8206 13.1452L16.8683 13.1445L16.8682 13.1454L17.5046 13.1454C17.8926 13.1539 18.2047 13.4712 18.2047 13.8613C18.2047 13.8773 18.2042 13.8932 18.2031 13.9089L18.2047 13.9104V16.2954C18.2047 17.5186 17.8507 18.6592 17.2396 19.6202C18.1088 19.4465 18.946 19.2268 19.7513 18.9612L19.8273 18.9358C20.6419 18.6696 21.2973 18.6295 20.8006 17.2952L20.7435 17.0561C20.4405 15.7716 20.26 14.7738 20.2018 14.0626C20.1485 13.5782 20.1193 13.0974 20.1145 12.6203L20.1138 12.4772V11.0454C20.1138 6.56436 16.4812 2.93176 12.0001 2.93176C7.51908 2.93176 3.88649 6.56436 3.88649 11.0454V12.4772C3.87325 12.9959 3.83697 13.5353 3.77765 14.0953C3.73504 14.8662 3.51505 15.9328 3.1177 17.2952C2.61901 18.619 3.16413 18.619 4.27847 18.9972C5.07833 19.256 5.90963 19.4698 6.77235 19.6386C6.15407 18.6736 5.79558 17.5264 5.79558 16.2954V13.8613C5.79558 13.4659 6.11611 13.1454 6.5115 13.1454V13.1454Z" fill="var(--fill-0, #555555)"/>
</g>
</svg>
