<svg preserveAspectRatio="none" width="100%" height="100%" overflow="visible" style="display: block;" viewBox="0 0 18 22" fill="none" xmlns="http://www.w3.org/2000/svg">
<g id="Group 107">
<path id="&#231;&#159;&#169;&#229;&#189;&#162;" fill-rule="evenodd" clip-rule="evenodd" d="M14 0C16.2091 0 18 1.79087 18 4V18C18 20.2091 16.2091 22 14 22H4C1.79086 22 0 20.2091 0 18V4C0 1.79087 1.79086 0 4 0H14V0Z" fill="url(#paint0_linear_0_4)"/>
<g id="Group 102">
<path id="&#231;&#159;&#169;&#229;&#189;&#162;_2" fill-rule="evenodd" clip-rule="evenodd" d="M15.25 4C15.6642 4 16 4.33579 16 4.75C16 5.16421 15.6642 5.5 15.25 5.5H13.25C12.8358 5.5 12.5 5.16421 12.5 4.75C12.5 4.33579 12.8358 4 13.25 4H15.25V4Z" fill="url(#paint1_linear_0_4)"/>
<path id="&#231;&#159;&#169;&#229;&#189;&#162;_3" fill-rule="evenodd" clip-rule="evenodd" d="M15.25 6.51685C15.6642 6.51685 16 6.85263 16 7.26685C16 7.68106 15.6642 8.01685 15.25 8.01685H13.25C12.8358 8.01685 12.5 7.68106 12.5 7.26685C12.5 6.85263 12.8358 6.51685 13.25 6.51685H15.25V6.51685Z" fill="url(#paint2_linear_0_4)"/>
</g>
<path id="&#229;&#189;&#162;&#231;&#138;&#182;&#231;&#187;&#147;&#229;&#144;&#136;" d="M9.00098 4C9.82918 4.00026 10.501 4.67174 10.501 5.5V11.4053C11.3963 11.9243 12 12.8906 12 14C12 15.6568 10.6569 17 9 17C7.34315 17 6 15.6568 6 14C6 12.8898 6.60456 11.9231 7.50098 11.4043V5.5C7.50098 4.67158 8.17255 4 9.00098 4Z" fill="url(#paint3_linear_0_4)"/>
</g>
<defs>
<linearGradient id="paint0_linear_0_4" x1="0" y1="0" x2="0" y2="22" gradientUnits="userSpaceOnUse">
<stop stop-color="#DC94FF"/>
<stop offset="1" stop-color="#B266FF"/>
</linearGradient>
<linearGradient id="paint1_linear_0_4" x1="12.5" y1="4" x2="12.5" y2="5.5" gradientUnits="userSpaceOnUse">
<stop stop-color="white"/>
<stop offset="1" stop-color="#E8D1FF"/>
</linearGradient>
<linearGradient id="paint2_linear_0_4" x1="12.5" y1="6.51685" x2="12.5" y2="8.01685" gradientUnits="userSpaceOnUse">
<stop stop-color="white"/>
<stop offset="1" stop-color="#E8D1FF"/>
</linearGradient>
<linearGradient id="paint3_linear_0_4" x1="6" y1="4" x2="6" y2="16.9999" gradientUnits="userSpaceOnUse">
<stop stop-color="white"/>
<stop offset="1" stop-color="#E8D1FF"/>
</linearGradient>
</defs>
</svg>
